<svg width="50" height="50" fill="currentColor" viewBox="0 0 24 24" xmlns="http://www.w3.org/2000/svg">
  <path d="M22.5 6a3 3 0 0 0-3-3h-.75v-.73c0-.404-.31-.75-.714-.77a.75.75 0 0 0-.786.749V3H6.75v-.73c0-.404-.31-.75-.714-.77a.75.75 0 0 0-.786.749V3H4.5a3 3 0 0 0-3 3v.562a.187.187 0 0 0 .188.188h20.625a.188.188 0 0 0 .187-.188V6Z"></path>
  <path d="M1.5 19.5a3 3 0 0 0 3 3h15a3 3 0 0 0 3-3V8.39a.14.14 0 0 0-.14-.14H1.64a.14.14 0 0 0-.14.14V19.5Zm16.125-9.75a1.125 1.125 0 1 1 0 2.25 1.125 1.125 0 0 1 0-2.25Zm0 3.75a1.125 1.125 0 1 1 0 2.25 1.125 1.125 0 0 1 0-2.25Zm-3.75-3.75a1.125 1.125 0 1 1 0 2.25 1.125 1.125 0 0 1 0-2.25Zm0 3.75a1.125 1.125 0 1 1 0 2.25 1.125 1.125 0 0 1 0-2.25Zm0 3.75a1.125 1.125 0 1 1 0 2.25 1.125 1.125 0 0 1 0-2.25Zm-3.75-3.75a1.125 1.125 0 1 1 0 2.25 1.125 1.125 0 0 1 0-2.25Zm0 3.75a1.125 1.125 0 1 1 0 2.25 1.125 1.125 0 0 1 0-2.25Zm-3.75-3.75a1.125 1.125 0 1 1 0 2.25 1.125 1.125 0 0 1 0-2.25Zm0 3.75a1.125 1.125 0 1 1 0 2.25 1.125 1.125 0 0 1 0-2.25Z"></path>
</svg>