<svg width="226" height="69" viewBox="0 0 226 69" fill="none" xmlns="http://www.w3.org/2000/svg">
<g filter="url(#filter0_d_37_75)">
<path d="M40.28 20.42V48.5H33.44V31.66L27.16 48.5H21.64L15.32 31.62V48.5H8.48L8.48 20.42H16.56L24.44 39.86L32.24 20.42H40.28ZM62.6788 43.54H52.1988L50.5188 48.5H43.3588L53.5188 20.42L61.4388 20.42L71.5988 48.5L64.3588 48.5L62.6788 43.54ZM60.9188 38.26L57.4388 27.98L53.9988 38.26H60.9188ZM84.8509 48.78C82.7976 48.78 80.9576 48.4467 79.3309 47.78C77.7043 47.1133 76.3976 46.1267 75.4109 44.82C74.4509 43.5133 73.9443 41.94 73.8909 40.1H81.1709C81.2776 41.14 81.6376 41.94 82.2509 42.5C82.8643 43.0333 83.6643 43.3 84.6509 43.3C85.6643 43.3 86.4643 43.0733 87.0509 42.62C87.6376 42.14 87.9309 41.4867 87.9309 40.66C87.9309 39.9667 87.6909 39.3933 87.2109 38.94C86.7576 38.4867 86.1843 38.1133 85.4909 37.82C84.8243 37.5267 83.8643 37.1933 82.6109 36.82C80.7976 36.26 79.3176 35.7 78.1709 35.14C77.0243 34.58 76.0376 33.7533 75.2109 32.66C74.3843 31.5667 73.9709 30.14 73.9709 28.38C73.9709 25.7667 74.9176 23.7267 76.8109 22.26C78.7043 20.7667 81.1709 20.02 84.2109 20.02C87.3043 20.02 89.7976 20.7667 91.6909 22.26C93.5843 23.7267 94.5976 25.78 94.7309 28.42H87.3309C87.2776 27.5133 86.9443 26.8067 86.3309 26.3C85.7176 25.7667 84.9309 25.5 83.9709 25.5C83.1443 25.5 82.4776 25.7267 81.9709 26.18C81.4643 26.6067 81.2109 27.2333 81.2109 28.06C81.2109 28.9667 81.6376 29.6733 82.4909 30.18C83.3443 30.6867 84.6776 31.2333 86.4909 31.82C88.3043 32.4333 89.7709 33.02 90.8909 33.58C92.0376 34.14 93.0243 34.9533 93.8509 36.02C94.6776 37.0867 95.0909 38.46 95.0909 40.14C95.0909 41.74 94.6776 43.1933 93.8509 44.5C93.0509 45.8067 91.8776 46.8467 90.3309 47.62C88.7843 48.3933 86.9576 48.78 84.8509 48.78ZM98.1403 34.42C98.1403 31.6467 98.7403 29.18 99.9403 27.02C101.14 24.8333 102.807 23.14 104.94 21.94C107.1 20.7133 109.54 20.1 112.26 20.1C115.594 20.1 118.447 20.98 120.82 22.74C123.194 24.5 124.78 26.9 125.58 29.94H118.06C117.5 28.7667 116.7 27.8733 115.66 27.26C114.647 26.6467 113.487 26.34 112.18 26.34C110.074 26.34 108.367 27.0733 107.06 28.54C105.754 30.0067 105.1 31.9667 105.1 34.42C105.1 36.8733 105.754 38.8333 107.06 40.3C108.367 41.7667 110.074 42.5 112.18 42.5C113.487 42.5 114.647 42.1933 115.66 41.58C116.7 40.9667 117.5 40.0733 118.06 38.9H125.58C124.78 41.94 123.194 44.34 120.82 46.1C118.447 47.8333 115.594 48.7 112.26 48.7C109.54 48.7 107.1 48.1 104.94 46.9C102.807 45.6733 101.14 43.98 99.9403 41.82C98.7403 39.66 98.1403 37.1933 98.1403 34.42ZM143.049 48.78C140.409 48.78 137.982 48.1667 135.769 46.94C133.582 45.7133 131.836 44.0067 130.529 41.82C129.249 39.6067 128.609 37.1267 128.609 34.38C128.609 31.6333 129.249 29.1667 130.529 26.98C131.836 24.7933 133.582 23.0867 135.769 21.86C137.982 20.6333 140.409 20.02 143.049 20.02C145.689 20.02 148.102 20.6333 150.289 21.86C152.502 23.0867 154.236 24.7933 155.489 26.98C156.769 29.1667 157.409 31.6333 157.409 34.38C157.409 37.1267 156.769 39.6067 155.489 41.82C154.209 44.0067 152.476 45.7133 150.289 46.94C148.102 48.1667 145.689 48.78 143.049 48.78ZM143.049 42.54C145.289 42.54 147.076 41.7933 148.409 40.3C149.769 38.8067 150.449 36.8333 150.449 34.38C150.449 31.9 149.769 29.9267 148.409 28.46C147.076 26.9667 145.289 26.22 143.049 26.22C140.782 26.22 138.969 26.9533 137.609 28.42C136.276 29.8867 135.609 31.8733 135.609 34.38C135.609 36.86 136.276 38.8467 137.609 40.34C138.969 41.8067 140.782 42.54 143.049 42.54ZM181.414 20.42V25.9H173.974V48.5H167.134V25.9L159.694 25.9V20.42H181.414ZM186.407 20.42H193.407L188.927 31.14H184.327L186.407 20.42ZM207.585 48.78C205.532 48.78 203.692 48.4467 202.065 47.78C200.439 47.1133 199.132 46.1267 198.145 44.82C197.185 43.5133 196.679 41.94 196.625 40.1L203.905 40.1C204.012 41.14 204.372 41.94 204.985 42.5C205.599 43.0333 206.399 43.3 207.385 43.3C208.399 43.3 209.199 43.0733 209.785 42.62C210.372 42.14 210.665 41.4867 210.665 40.66C210.665 39.9667 210.425 39.3933 209.945 38.94C209.492 38.4867 208.919 38.1133 208.225 37.82C207.559 37.5267 206.599 37.1933 205.345 36.82C203.532 36.26 202.052 35.7 200.905 35.14C199.759 34.58 198.772 33.7533 197.945 32.66C197.119 31.5667 196.705 30.14 196.705 28.38C196.705 25.7667 197.652 23.7267 199.545 22.26C201.439 20.7667 203.905 20.02 206.945 20.02C210.039 20.02 212.532 20.7667 214.425 22.26C216.319 23.7267 217.332 25.78 217.465 28.42H210.065C210.012 27.5133 209.679 26.8067 209.065 26.3C208.452 25.7667 207.665 25.5 206.705 25.5C205.879 25.5 205.212 25.7267 204.705 26.18C204.199 26.6067 203.945 27.2333 203.945 28.06C203.945 28.9667 204.372 29.6733 205.225 30.18C206.079 30.6867 207.412 31.2333 209.225 31.82C211.039 32.4333 212.505 33.02 213.625 33.58C214.772 34.14 215.759 34.9533 216.585 36.02C217.412 37.0867 217.825 38.46 217.825 40.14C217.825 41.74 217.412 43.1933 216.585 44.5C215.785 45.8067 214.612 46.8467 213.065 47.62C211.519 48.3933 209.692 48.78 207.585 48.78Z" fill="#191919"/>
</g>
<defs>
<filter id="filter0_d_37_75" x="4.47998" y="20.02" width="217.345" height="36.76" filterUnits="userSpaceOnUse" color-interpolation-filters="sRGB">
<feFlood flood-opacity="0" result="BackgroundImageFix"/>
<feColorMatrix in="SourceAlpha" type="matrix" values="0 0 0 0 0 0 0 0 0 0 0 0 0 0 0 0 0 0 127 0" result="hardAlpha"/>
<feOffset dy="4"/>
<feGaussianBlur stdDeviation="2"/>
<feComposite in2="hardAlpha" operator="out"/>
<feColorMatrix type="matrix" values="0 0 0 0 0 0 0 0 0 0 0 0 0 0 0 0 0 0 0.25 0"/>
<feBlend mode="normal" in2="BackgroundImageFix" result="effect1_dropShadow_37_75"/>
<feBlend mode="normal" in="SourceGraphic" in2="effect1_dropShadow_37_75" result="shape"/>
</filter>
</defs>
</svg>
